<svg width="12" height="13" viewBox="0 0 12 13" fill="none" xmlns="http://www.w3.org/2000/svg">
<path d="M7.09938 6.0299L11.7719 1.35711C12.076 1.05316 12.076 0.561721 11.7719 0.257775C11.468 -0.0461709 10.9766 -0.0461709 10.6726 0.257775L5.99993 4.93057L1.32737 0.257775C1.02329 -0.0461709 0.532001 -0.0461709 0.228062 0.257775C-0.0760205 0.561721 -0.0760205 1.05316 0.228062 1.35711L4.90062 6.0299L0.228062 10.7027C-0.0760205 11.0066 -0.0760205 11.4981 0.228062 11.802C0.379533 11.9537 0.578696 12.0298 0.777716 12.0298C0.976736 12.0298 1.17576 11.9537 1.32737 11.802L5.99993 7.12924L10.6726 11.802C10.8242 11.9537 11.0233 12.0298 11.2223 12.0298C11.4213 12.0298 11.6203 11.9537 11.7719 11.802C12.076 11.4981 12.076 11.0066 11.7719 10.7027L7.09938 6.0299Z" fill="#797979"/>
</svg>
